
<svg xmlns="http://www.w3.org/2000/svg" viewBox="0 0 3000 3000"><path fill="#FFF" d="M0 0h3000v3000H0z"/><path fill="#96CFF2" d="m1579.15 2100.5 328.3-328.29 141.01 141.01 295.93-295.94-33.079-33.08 163.959-39.95-39.95 163.96-33.08-33.08-353.78 353.78-141.01-141L1637 2158.351z"/><path fill="#677D22" d="M1942.929 2645.984a2.085 2.085 0 0 1-2.084-2.05c-.012-.7-.971-70.944 18.157-151.314 7.642-32.111 17.427-61.556 29.218-87.975.029-.083.063-.165.104-.246l.057-.115c5.515-12.323 11.468-23.989 17.842-34.955 25.175-43.307 57.053-75.807 94.751-96.596 180.584-99.592 310.69-186.618 348.035-232.795a2.085 2.085 0 0 1 3.691 1.564c-.111.915-2.885 22.779-16.443 53.951-12.492 28.719-36.905 70.929-82.267 108.926-34.973 29.29-89.824 48.487-147.896 68.811-86.854 30.396-176.629 61.817-212.706 130.472-14.009 30.647-23.668 61.959-30.308 89.836-19.021 79.872-18.076 149.671-18.064 150.367a2.085 2.085 0 0 1-2.05 2.12l-.037-.001zm504.306-597.583c-43.281 47.814-170.53 132.179-344.248 227.984-41.689 22.989-72.165 58.577-94.426 97.584 43.729-51.374 121.023-78.422 196.154-104.716 57.703-20.195 112.206-39.27 146.596-68.072 44.677-37.423 68.735-78.97 81.051-107.233 8.776-20.137 13-36.577 14.873-45.547z"/><path fill="#B6D563" d="M2150.96 1947.62s-14.25 90.93-103.89 190.04c-89.631 99.11-85.641 269.45-85.641 269.45s7.33-72.74 86.04-168.82c78.711-96.09 93.191-133.04 103.491-290.67z"/><path fill="#677D22" d="M1942.42 2632.825a2.086 2.086 0 0 1-2.085-2.063c-1.381-126.989 9.432-225.877 33.056-302.313 20.212-65.4 47.055-108.208 81.139-152.363 59.764-77.435 77.531-155.842 77.704-156.624a2.084 2.084 0 1 1 4.072.896c-.175.792-18.147 80.11-78.476 158.276-61.445 79.6-116.349 174.072-113.325 452.083a2.084 2.084 0 0 1-2.063 2.107l-.022.001z"/><path fill="#B6D563" d="M1511.77 2440.05s121.17 93.33 249.021-26.32c127.851-119.649 165.95 54.7 165.95 54.7s.51-108.42-80.62-139.52c-81.14-31.091-112.45 54.159-215.63 46.319s-118.721 64.821-118.721 64.821z"/><path fill="#677D22" d="M1942.929 2645.015a2.085 2.085 0 0 1-2.084-2.046c-1.637-87.027-9.042-152.653-22.64-200.626-12.086-42.644-28.827-70.283-51.181-84.499-41.943-26.676-97.552-1.898-156.424 24.331-42.716 19.031-86.796 38.667-127.329 38.669-2.832 0-5.643-.096-8.438-.294a2.087 2.087 0 0 1-1.933-2.228c.081-1.149 1.09-2.004 2.228-1.933 41.77 2.978 88.542-17.871 133.775-38.023 59.927-26.698 116.528-51.914 160.359-24.041 23.256 14.789 40.577 43.208 52.955 86.88 13.695 48.322 21.152 114.295 22.797 201.686a2.086 2.086 0 0 1-2.046 2.124h-.039z"/><path fill="#A5C250" d="M1942.93 2642.93c-10.26-309.22-26.77-459.95-71.319-531.35-44.561-71.4-57.66-212.37-57.66-212.37s-76.011 87.93 9.149 258.721c85.15 170.779 115.95 368.069 119.83 484.999z"/><path fill="#D0D3D4" d="M1878.85 2767.37h128.16l26.381-203.28H1852.48z"/><path fill="#2A1D19" d="M2028.97 2599.135h-155.4a2.086 2.086 0 0 1 0-4.17h155.399a2.086 2.086 0 0 1 .001 4.17z"/><path fill="#2A1D19" d="M2007.01 2769.455h-128.16a2.083 2.083 0 0 1-2.067-1.816l-26.369-203.28a2.084 2.084 0 0 1 1.799-2.336 2.081 2.081 0 0 1 2.336 1.799l26.134 201.464h126.328a2.086 2.086 0 0 1-.001 4.169z"/><circle cx="547.1" cy="2091.45" r="37.9" fill="#FFE072"/><circle cx="2335.22" cy="2337.85" r="17.52" fill="#FD3E42"/><path fill="#5630AD" d="M2491.64 1793.29c16.48 0 31.41 6.689 42.21 17.49 10.801 10.8 17.49 25.729 17.49 42.21 0 16.479-6.689 31.41-17.49 42.21-10.8 10.8-25.729 17.49-42.21 17.49-16.479 0-31.409-6.69-42.21-17.49-10.8-10.801-17.49-25.73-17.49-42.21s6.69-31.41 17.49-42.21c10.8-10.801 25.73-17.49 42.21-17.49zm24.54 35.16c-6.279-6.271-14.96-10.16-24.54-10.16s-18.26 3.89-24.54 10.16c-6.27 6.28-10.16 14.96-10.16 24.54s3.891 18.26 10.16 24.53c6.28 6.279 14.96 10.16 24.54 10.16s18.261-3.881 24.54-10.16c6.271-6.271 10.16-14.95 10.16-24.53s-3.89-18.26-10.16-24.54z"/><path fill="#FFE072" d="M853.32 509.83c8.24 0 15.699 3.34 21.1 8.75a29.712 29.712 0 0 1 8.75 21.1c0 8.24-3.34 15.7-8.75 21.101-5.4 5.409-12.859 8.75-21.1 8.75s-15.7-3.341-21.11-8.75c-5.399-5.4-8.74-12.86-8.74-21.101 0-8.239 3.341-15.7 8.74-21.1 5.41-5.41 12.87-8.75 21.11-8.75zm12.27 17.58c-3.14-3.141-7.479-5.08-12.27-5.08s-9.131 1.939-12.271 5.08c-3.14 3.14-5.08 7.479-5.08 12.27s1.94 9.13 5.08 12.271c3.14 3.14 7.48 5.08 12.271 5.08s9.13-1.94 12.27-5.08c3.141-3.141 5.08-7.48 5.08-12.271s-1.94-9.13-5.08-12.27z"/><path fill="#FD3E42" d="M439.73 1958a29.77 29.77 0 0 1 21.109 8.74 29.768 29.768 0 0 1 8.74 21.109c0 8.24-3.34 15.7-8.74 21.101a29.735 29.735 0 0 1-21.109 8.75c-8.24 0-15.7-3.34-21.101-8.75-5.399-5.4-8.75-12.86-8.75-21.101 0-8.239 3.351-15.71 8.75-21.109 5.401-5.4 12.861-8.74 21.101-8.74zm12.27 17.58a17.282 17.282 0 0 0-12.27-5.08c-4.791 0-9.131 1.94-12.261 5.08-3.14 3.14-5.09 7.479-5.09 12.27s1.95 9.13 5.09 12.271a17.3 17.3 0 0 0 12.261 5.08c4.8 0 9.13-1.95 12.27-5.08 3.14-3.141 5.08-7.48 5.08-12.271s-1.94-9.13-5.08-12.27z"/><circle cx="2427.79" cy="841.38" r="25.51" fill="#FD3E42"/><path fill="#5630AD" d="M2330.62 1531.56c9.8-2.01 19.39-4.6 28.75-7.699-1.399-21.17 9.021-42.311 28.64-53.641 19.601-11.319 43.08-9.779 60.71 1.99a256.684 256.684 0 0 0 21.07-21.07c-11.771-17.63-13.3-41.119-1.979-60.72 11.319-19.62 32.47-30.04 53.64-28.63 3.1-9.359 5.68-18.96 7.689-28.76-19.03-9.38-32.13-28.96-32.13-51.62 0-7 1.26-13.71 3.551-19.92h-54.301c.771 6.54 1.17 13.18 1.17 19.92 0 93.03-75.41 168.44-168.43 168.44s-168.43-75.41-168.43-168.44c0-6.74.41-13.38 1.18-19.92h-54.311a57.442 57.442 0 0 1 3.551 19.92c0 22.65-13.1 42.24-32.131 51.62a255.8 255.8 0 0 0 7.701 28.76c21.17-1.4 42.31 9.01 53.629 28.63 11.32 19.601 9.791 43.09-1.979 60.72a258.423 258.423 0 0 0 21.07 21.07c17.63-11.77 41.12-13.31 60.71-1.99 19.63 11.33 30.04 32.471 28.64 53.65 9.36 3.1 18.95 5.68 28.76 7.689 9.37-19.039 28.96-32.13 51.61-32.13s42.24 13.092 51.62 32.131z"/><path fill="#5630AD" d="M2497.02 1281.41c0-22.64 13.091-42.23 32.121-51.61a253.913 253.913 0 0 0-7.69-28.76c-21.18 1.4-42.32-9.01-53.64-28.63-11.32-19.601-9.78-43.09 1.979-60.72a258.46 258.46 0 0 0-21.06-21.07c-17.63 11.77-41.12 13.3-60.721 1.99-19.619-11.33-30.039-32.471-28.629-53.65-9.36-3.1-18.961-5.68-28.761-7.689-9.38 19.029-28.97 32.13-51.62 32.13-22.649 0-42.24-13.101-51.609-32.13-9.811 2.01-19.4 4.6-28.761 7.699 1.4 21.17-9.02 42.311-28.63 53.641-19.6 11.31-43.09 9.779-60.72-1.99a258.582 258.582 0 0 0-21.07 21.07c11.771 17.63 13.3 41.119 1.99 60.72-11.33 19.62-32.47 30.03-53.649 28.63a255.124 255.124 0 0 0-7.69 28.76c19.03 9.38 32.13 28.96 32.13 51.61h49.58c0-93.021 75.41-168.431 168.43-168.431 93.03 0 168.43 75.41 168.43 168.431h49.59v-.001z"/><path fill="#2A1D19" d="M2279 1473.615c-105.981 0-192.204-86.223-192.204-192.205a2.086 2.086 0 0 1 4.17 0c0 103.683 84.352 188.035 188.034 188.035a2.086 2.086 0 0 1 0 4.17zm62.68-10.57a2.086 2.086 0 0 1-.688-4.054c75.391-26.315 126.043-97.68 126.043-177.581 0-103.683-84.353-188.035-188.035-188.035-31.998 0-63.591 8.18-91.365 23.656a2.084 2.084 0 1 1-2.029-3.642c28.393-15.821 60.688-24.184 93.395-24.184 105.982 0 192.205 86.223 192.205 192.205 0 81.672-51.776 154.619-128.838 181.519a2.102 2.102 0 0 1-.688.116z"/><path fill="#FFE072" d="M2279 1425.15c79.38 0 143.73-64.351 143.73-143.74 0-79.38-64.351-143.73-143.73-143.73s-143.73 64.351-143.73 143.73c0 79.39 64.35 143.74 143.73 143.74z"/><path fill="#FFF" d="M2266.89 1360.63c-7.96-.74-15.739-2.26-23.33-4.57-11.149-3.399-19.97-7.899-26.46-13.51l9.96-22.38c6.351 5.021 14.14 9.12 23.37 12.3 9.23 3.17 18.49 4.761 27.801 4.761 11.51 0 20.119-1.851 25.8-5.54 5.689-3.69 8.53-8.561 8.53-14.62 0-4.42-1.591-8.08-4.761-10.96-3.18-2.88-7.2-5.13-12.069-6.75-4.881-1.63-11.521-3.48-19.94-5.54-11.81-2.811-21.37-5.61-28.68-8.42-7.311-2.811-13.591-7.2-18.83-13.181-5.24-5.979-7.86-14.06-7.86-24.25 0-8.569 2.32-16.35 6.97-23.37 4.66-7.01 11.67-12.59 21.05-16.72 5.44-2.4 11.591-4.109 18.45-5.109v-28.641h24.22v27.85c6.641.48 13.19 1.57 19.681 3.24 9.149 2.36 17.05 5.76 23.7 10.19l-9.08 22.37c-6.801-3.99-13.881-7.011-21.271-9.08-7.38-2.07-14.54-3.101-21.479-3.101-11.371 0-19.83 1.921-25.36 5.761-5.54 3.83-8.311 8.93-8.311 15.279 0 4.431 1.591 8.051 4.761 10.851 3.18 2.81 7.199 5.02 12.069 6.649 4.88 1.62 11.521 3.471 19.94 5.53 11.52 2.66 20.97 5.431 28.35 8.311s13.7 7.27 18.94 13.18c5.239 5.91 7.86 13.88 7.86 23.92 0 8.561-2.33 16.32-6.98 23.26-4.65 6.94-11.7 12.48-21.15 16.61-6.3 2.76-13.529 4.6-21.67 5.51v28.24h-24.22v-28.07h-.001z"/><path fill="#7DA3FB" d="M580.71 1047.05c-16.54 10.45-32.3 21.811-47.28 33.95 17.181 37.76 12.73 83.63-15.33 117.9-28.039 34.229-72.06 47.649-112.439 38.3a505.768 505.768 0 0 0-23.99 53.09c33.71 24.13 52.73 66.03 45.57 109.7-7.16 43.72-38.65 77.37-78.351 89.43.79 19.26 2.71 38.601 5.801 57.92 41.29 4 78.77 30.79 94.42 72.22 4.84 12.82 7.18 25.961 7.27 38.9l99.34-37.51a334.793 334.793 0 0 1-15.92-35.63c-64.25-170.17 21.61-360.2 191.771-424.45s360.189 21.6 424.449 191.77c4.65 12.33 8.5 24.771 11.601 37.261l99.34-37.521c-8.479-9.77-15.41-21.18-20.25-33.99-15.64-41.43-5.22-86.31 23.12-116.6a497.4 497.4 0 0 0-33.95-47.3c-37.76 17.189-83.62 12.74-117.89-15.33-34.23-28.03-47.65-72.05-38.311-112.43a501.591 501.591 0 0 0-53.09-23.99c-24.12 33.7-66.03 52.729-109.689 45.569-43.721-7.17-77.381-38.649-89.44-78.359-19.26.79-38.59 2.71-57.92 5.8-4 41.29-30.78 78.78-72.22 94.43-41.432 15.64-86.312 5.22-116.612-23.13z"/><path fill="#7DA3FB" d="M449.11 1619.57c15.64 41.43 5.21 86.3-23.12 116.59 10.449 16.55 21.81 32.319 33.939 47.3 37.771-17.18 83.631-12.73 117.9 15.33 34.23 28.04 47.65 72.06 38.3 112.439a503.446 503.446 0 0 0 53.09 23.98c24.13-33.7 66.03-52.73 109.7-45.57 43.71 7.17 77.38 38.66 89.43 78.37 19.261-.8 38.601-2.71 57.92-5.8 4-41.29 30.791-78.78 72.221-94.43 41.439-15.65 86.319-5.221 116.609 23.13a495.646 495.646 0 0 0 47.29-33.96c-17.189-37.76-12.729-83.62 15.33-117.891 28.03-34.239 72.061-47.66 112.431-38.31a501.885 501.885 0 0 0 23.989-53.09c-33.699-24.12-52.729-66.03-45.569-109.69 7.18-43.72 38.649-77.37 78.359-89.439-.8-19.26-2.72-38.601-5.8-57.92-41.29-4-78.78-30.78-94.42-72.221l-90.7 34.25c64.26 170.16-21.6 360.19-191.76 424.44-170.17 64.26-360.2-21.6-424.45-191.76l-90.689 34.252z"/><path fill="#2A1D19" d="M848.125 1842.913c-4.883 0-9.768-.096-14.666-.287-48.297-1.891-95.22-12.984-139.465-32.975s-83.585-47.869-116.925-82.863c-34.519-36.231-61.062-78.54-78.89-125.752-27.949-74.014-31.826-153.37-11.211-229.489a375.447 375.447 0 0 1 45.68-103.511c20.612-32.393 45.931-61.263 75.254-85.805a2.086 2.086 0 0 1 2.677 3.198c-120.386 100.761-163.988 267.189-108.498 414.134 72.007 190.685 285.726 287.241 476.414 215.246 58.839-22.221 111.263-59.201 151.603-106.945a2.084 2.084 0 1 1 3.185 2.691c-40.797 48.285-93.813 85.685-153.315 108.154-42.588 16.081-86.875 24.204-131.843 24.204zm347.565-503.167a2.085 2.085 0 0 1-1.951-1.349c-34.882-92.374-103.647-165.637-193.63-206.292-89.983-40.656-190.412-43.836-282.782-8.954a2.085 2.085 0 1 1-1.474-3.901c47.212-17.828 96.504-25.877 146.508-23.919 48.296 1.89 95.219 12.984 139.465 32.975 44.245 19.991 83.584 47.871 116.925 82.866 34.519 36.231 61.061 78.541 78.889 125.752a2.086 2.086 0 0 1-1.95 2.822z"/><path fill="#FFF" d="M688.73 1234.53h318.359v468.89H688.73z"/><path fill="#2A1D19" d="M1007.09 1705.505H688.73a2.086 2.086 0 0 1-2.085-2.085v-468.89c0-1.151.934-2.085 2.085-2.085h318.359c1.151 0 2.085.934 2.085 2.085v468.89a2.084 2.084 0 0 1-2.084 2.085zm-316.275-4.17h314.189v-464.72H690.815v464.72z"/><path fill="#2A1D19" d="M768.99 1362.495h-48.88a2.086 2.086 0 0 1-2.085-2.085v-48.88c0-1.151.934-2.085 2.085-2.085h48.88c1.151 0 2.085.934 2.085 2.085v48.88a2.084 2.084 0 0 1-2.085 2.085zm-46.795-4.17h44.71v-44.71h-44.71v44.71zm253.525-20.27H801.04a2.086 2.086 0 0 1 0-4.17h174.68a2.086 2.086 0 0 1 0 4.17zm-206.73 113.11h-48.88a2.086 2.086 0 0 1-2.085-2.085v-48.88c0-1.151.934-2.085 2.085-2.085h48.88c1.151 0 2.085.934 2.085 2.085v48.88a2.085 2.085 0 0 1-2.085 2.085zm-46.795-4.17h44.71v-44.71h-44.71v44.71zm253.525-20.27H801.04a2.086 2.086 0 0 1 0-4.17h174.68a2.086 2.086 0 0 1 0 4.17zm-206.73 113.11h-48.88a2.086 2.086 0 0 1-2.085-2.085v-48.88c0-1.151.934-2.085 2.085-2.085h48.88c1.151 0 2.085.934 2.085 2.085v48.88a2.085 2.085 0 0 1-2.085 2.085zm-46.795-4.17h44.71v-44.71h-44.71v44.71zm253.525-20.27H801.04a2.086 2.086 0 0 1 0-4.17h174.68a2.086 2.086 0 0 1 0 4.17zm-206.73 113.11h-48.88a2.086 2.086 0 0 1-2.085-2.085v-48.88c0-1.151.934-2.085 2.085-2.085h48.88c1.151 0 2.085.934 2.085 2.085v48.88a2.085 2.085 0 0 1-2.085 2.085zm-46.795-4.17h44.71v-44.71h-44.71v44.71zm253.525-20.271H801.04a2.086 2.086 0 0 1 0-4.17h174.68a2.086 2.086 0 0 1 0 4.17z"/><path fill="#7DA3FB" d="M1047.561 483.9h646.879v388.13h-646.879z"/><path fill="#2A1D19" d="M1667.25 850.675h-646.88a2.086 2.086 0 0 1-2.085-2.085V460.46c0-1.151.934-2.085 2.085-2.085h646.88c1.151 0 2.085.934 2.085 2.085v388.13a2.086 2.086 0 0 1-2.085 2.085zm-644.795-4.17h642.71v-383.96h-642.71v383.96z"/><path fill="#FFF" d="M1085.65 686.4h18.75v105h-18.75zm115.31-68.44h18.75V791.4h-18.75zm115.31 24.38h18.75v149.061h-18.75zm115.31-53.43h18.75v202.5h-18.75zm115.311-69.38h18.75V791.4h-18.75z"/><path fill="#FD3E42" d="M1098.063 723.175a2.087 2.087 0 0 1-.963-3.936l158.91-82.5a2.084 2.084 0 0 1 1.493-.165l114.502 30.253 228.942-128.954a2.085 2.085 0 0 1 2.047 3.633l-229.68 129.369a2.09 2.09 0 0 1-1.556.199l-114.542-30.264-158.195 82.129a2.056 2.056 0 0 1-.958.236z"/><path fill="#2A1D19" d="M1892.09 1720.245c-71.217 0-129.155-57.938-129.155-129.155 0-71.216 57.938-129.154 129.155-129.154s129.155 57.938 129.155 129.154c0 71.217-57.938 129.155-129.155 129.155zm0-254.14c-68.917 0-124.985 56.067-124.985 124.984s56.068 124.985 124.985 124.985 124.985-56.068 124.985-124.985-56.068-124.984-124.985-124.984z"/><circle cx="1889.21" cy="1593.96" r="117.23" fill="#FFE072"/><path fill="#2A1D19" d="m1938.189 1596.055-48.979-.01a2.087 2.087 0 0 1-2.085-2.12l1.09-64.58c.02-1.14.949-2.05 2.084-2.05h.036a2.087 2.087 0 0 1 2.05 2.12l-1.055 62.46 46.859.01a2.085 2.085 0 0 1 0 4.17z"/><path fill="#FFF" d="M1883.52 1494.21h11.371v24.97h-11.371zm0 174.54h11.371v24.97h-11.371zm42.538-4.094 6.044-3.49 7.66 13.265-6.043 3.49zm-87.368-151.254 6.044-3.49 7.66 13.266-6.044 3.49zm117.786 123.379 3.49-6.043 13.265 7.66-3.49 6.043zm-151.211-87.328 3.489-6.045 13.268 7.658-3.49 6.045zm158.727 38.827h24.968v11.376h-24.968zm-174.529 0h24.967v11.376h-24.967zm142.557-61.583-6.043-3.49 7.66-13.265 6.044 3.49zm-87.145 151.241-6.043-3.49 7.659-13.265 6.043 3.49zm115.051-120.696-3.49-6.045 13.265-7.659 3.49 6.045zm-151.165 87.269-3.49-6.044 13.265-7.659 3.49 6.045z"/><path fill="#D0D3D4" d="M607.82 735.62c-3.9 2.46-7.61 5.14-11.141 8 4.051 8.89 3 19.689-3.609 27.76-6.6 8.06-16.97 11.22-26.47 9.02a116.74 116.74 0 0 0-5.649 12.51c7.93 5.68 12.41 15.54 10.729 25.83-1.689 10.29-9.1 18.22-18.449 21.06.18 4.53.63 9.09 1.359 13.641 9.72.939 18.55 7.25 22.24 17.01a26.336 26.336 0 0 1 1.71 9.16l23.39-8.84a77.549 77.549 0 0 1-3.74-8.391c-15.14-40.07 5.08-84.82 45.15-99.95 40.08-15.13 84.83 5.08 99.96 45.16 1.101 2.9 2 5.83 2.73 8.771l23.399-8.83c-2-2.301-3.63-4.99-4.77-8.011-3.69-9.76-1.23-20.319 5.439-27.46-2.46-3.89-5.14-7.609-7.989-11.13-8.9 4.04-19.7 2.99-27.771-3.609-8.06-6.61-11.22-16.971-9.02-26.48-4.051-2.13-8.23-4.01-12.5-5.649-5.681 7.93-15.551 12.42-25.83 10.729-10.301-1.69-18.221-9.1-21.061-18.45-4.54.18-9.09.63-13.64 1.36-.94 9.729-7.25 18.55-17.01 22.24-9.757 3.679-20.327 1.229-27.457-5.451z"/><path fill="#D0D3D4" d="M576.83 870.45c3.68 9.75 1.23 20.32-5.45 27.45a114.94 114.94 0 0 0 8 11.14c8.89-4.04 19.69-3 27.76 3.61 8.061 6.609 11.221 16.97 9.021 26.479 4.06 2.12 8.229 4.01 12.5 5.65 5.68-7.94 15.55-12.42 25.83-10.73 10.3 1.69 18.229 9.101 21.07 18.45 4.529-.18 9.08-.64 13.64-1.36.94-9.729 7.25-18.56 17-22.239 9.76-3.69 20.33-1.23 27.46 5.439 3.9-2.46 7.609-5.13 11.14-7.989-4.05-8.891-3-19.69 3.61-27.761 6.6-8.069 16.97-11.229 26.48-9.03 2.119-4.05 4.01-8.229 5.649-12.5-7.94-5.68-12.42-15.55-10.729-25.829 1.68-10.29 9.1-18.221 18.449-21.061-.189-4.54-.64-9.09-1.369-13.64-9.721-.94-18.551-7.25-22.23-17.01l-21.36 8.069c15.13 40.07-5.09 84.82-45.159 99.95-40.07 15.13-84.82-5.09-99.961-45.16l-21.351 8.072z"/><path fill="#2A1D19" d="M669.833 897.56c-8.758 0-17.495-1.865-25.717-5.58-15.226-6.878-26.859-19.274-32.757-34.904-9.392-24.864-2.017-53.021 18.352-70.065a2.084 2.084 0 1 1 2.676 3.198c-19.01 15.906-25.893 42.186-17.126 65.394 5.505 14.588 16.362 26.157 30.572 32.577 14.208 6.419 30.065 6.92 44.649 1.41a58.319 58.319 0 0 0 23.944-16.886 2.085 2.085 0 0 1 3.185 2.691c-6.835 8.09-15.707 14.347-25.658 18.096-7.184 2.716-14.66 4.069-22.12 4.069zm56.587-81.845a2.085 2.085 0 0 1-1.951-1.349c-5.505-14.588-16.362-26.157-30.569-32.576s-30.065-6.921-44.654-1.41a2.085 2.085 0 1 1-1.474-3.902c15.63-5.903 32.622-5.367 47.844 1.511 15.223 6.877 26.854 19.273 32.753 34.904a2.085 2.085 0 0 1-1.949 2.822z"/><path fill="#D0D3D4" d="M845.811 706.64a60.745 60.745 0 0 0-5.881 4.221c2.131 4.699 1.58 10.409-1.91 14.67-3.489 4.26-8.97 5.93-13.989 4.77a64.24 64.24 0 0 0-2.99 6.601c4.2 3.01 6.56 8.22 5.67 13.649-.89 5.44-4.81 9.63-9.75 11.13.101 2.4.34 4.8.729 7.21 5.131.49 9.801 3.83 11.74 8.98.61 1.6.9 3.229.91 4.84l12.36-4.66a41.28 41.28 0 0 1-1.98-4.439c-7.989-21.17 2.69-44.811 23.86-52.811 21.17-7.99 44.82 2.69 52.81 23.86.58 1.54 1.061 3.08 1.44 4.64l12.359-4.67a14.248 14.248 0 0 1-2.52-4.229 14.005 14.005 0 0 1 2.88-14.511c-1.3-2.06-2.71-4.02-4.22-5.88a13.99 13.99 0 0 1-14.67-1.909c-4.26-3.49-5.93-8.961-4.771-13.99a61.988 61.988 0 0 0-6.6-2.98c-3.01 4.19-8.22 6.561-13.65 5.67a14.005 14.005 0 0 1-11.13-9.75c-2.4.101-4.8.33-7.21.721-.49 5.14-3.83 9.8-8.979 11.75a14 14 0 0 1-14.508-2.883z"/><path fill="#D0D3D4" d="M829.43 777.87c1.95 5.16.65 10.74-2.869 14.51a61.957 61.957 0 0 0 4.22 5.891c4.7-2.141 10.409-1.591 14.67 1.899 4.26 3.49 5.93 8.97 4.77 13.99a63.284 63.284 0 0 0 6.601 2.99c3-4.2 8.22-6.561 13.649-5.67 5.44.89 9.63 4.81 11.13 9.75a63.102 63.102 0 0 0 7.2-.721c.5-5.14 3.84-9.81 8.99-11.75 5.16-1.95 10.74-.649 14.51 2.87a60.6 60.6 0 0 0 5.88-4.22c-2.14-4.7-1.58-10.41 1.91-14.67s8.97-5.93 13.99-4.771c1.12-2.14 2.12-4.34 2.979-6.6-4.189-3-6.56-8.22-5.67-13.65.9-5.439 4.811-9.63 9.75-11.13-.09-2.39-.33-4.8-.72-7.2-5.14-.5-9.8-3.83-11.75-8.989l-11.28 4.26c7.99 21.17-2.689 44.82-23.859 52.81-21.17 8-44.82-2.689-52.811-23.859l-11.29 4.26zm1046.33 214.66a94.935 94.935 0 0 0-8.96 6.42c3.261 7.149 2.41 15.84-2.899 22.33-5.311 6.479-13.641 9.02-21.291 7.25a97.663 97.663 0 0 0-4.539 10.05c6.38 4.57 9.979 12.5 8.63 20.771-1.36 8.279-7.32 14.649-14.841 16.939.15 3.64.521 7.3 1.101 10.96 7.819.76 14.92 5.83 17.88 13.68.92 2.421 1.36 4.91 1.38 7.36l18.8-7.1a62.69 62.69 0 0 1-3.01-6.75c-12.16-32.221 4.09-68.2 36.311-80.36 32.22-12.17 68.199 4.09 80.369 36.31.881 2.33 1.61 4.69 2.19 7.051l18.81-7.101a21.409 21.409 0 0 1-3.829-6.439c-2.96-7.84-.99-16.34 4.38-22.08a94.425 94.425 0 0 0-6.43-8.95c-7.15 3.25-15.84 2.41-22.32-2.9-6.48-5.31-9.03-13.649-7.26-21.289a92.239 92.239 0 0 0-10.051-4.54c-4.569 6.38-12.5 9.979-20.77 8.62-8.28-1.351-14.65-7.311-16.93-14.83-3.65.149-7.311.51-10.971 1.09-.76 7.819-5.83 14.92-13.67 17.88-7.85 2.968-16.35.989-22.08-4.372z"/><path fill="#D0D3D4" d="M1850.84 1100.93c2.96 7.841.99 16.341-4.38 22.07a92.966 92.966 0 0 0 6.431 8.96c7.149-3.25 15.829-2.41 22.319 2.9 6.479 5.31 9.021 13.649 7.25 21.29 3.26 1.71 6.62 3.22 10.06 4.54 4.561-6.381 12.5-9.98 20.771-8.62 8.271 1.35 14.649 7.31 16.931 14.83 3.649-.15 7.31-.511 10.969-1.101.75-7.81 5.83-14.91 13.671-17.87 7.85-2.97 16.34-.989 22.079 4.37a92.876 92.876 0 0 0 8.951-6.43c-3.25-7.141-2.41-15.83 2.909-22.32 5.3-6.479 13.64-9.02 21.28-7.25 1.71-3.26 3.23-6.62 4.55-10.05-6.38-4.57-9.989-12.5-8.63-20.771 1.36-8.279 7.32-14.649 14.83-16.939-.15-3.64-.51-7.3-1.09-10.96-7.82-.76-14.92-5.83-17.88-13.68l-17.171 6.489c12.16 32.221-4.09 68.2-36.31 80.36-32.22 12.17-68.2-4.09-80.37-36.31l-17.17 6.492z"/><path fill="#2A1D19" d="M2137.339 998.937c-32.306 0-64.882-9.892-92.862-30.425-53.878-39.554-76.929-109.033-57.359-172.892a2.082 2.082 0 0 1 2.604-1.383 2.084 2.084 0 0 1 1.382 2.604c-19.05 62.165 3.391 129.803 55.84 168.308 68.063 49.947 164.077 35.218 214.036-32.833 15.42-21.02 25.272-45.698 28.492-71.365a2.086 2.086 0 0 1 4.137.518c-3.308 26.371-13.428 51.722-29.267 73.314-30.781 41.929-78.586 64.154-127.003 64.154zm-124.911-246.972a2.084 2.084 0 0 1-1.678-3.319c24.86-33.869 61.421-56.029 102.946-62.399 41.522-6.369 83.045 3.813 116.908 28.673a2.084 2.084 0 1 1-2.467 3.362c-32.966-24.201-73.382-34.117-113.81-27.913-40.424 6.201-76.016 27.774-100.217 60.745a2.082 2.082 0 0 1-1.682.851z"/><path fill="#FFE072" d="M2137.54 959.05c64.8 0 117.34-52.54 117.34-117.34s-52.54-117.33-117.34-117.33-117.33 52.53-117.33 117.33 52.53 117.34 117.33 117.34z"/><path fill="#FFF" d="M2127.65 906.38c-6.5-.6-12.841-1.85-19.041-3.74-9.1-2.77-16.3-6.439-21.6-11.02l8.13-18.271c5.19 4.101 11.54 7.45 19.08 10.04 7.53 2.59 15.101 3.891 22.69 3.891 9.399 0 16.42-1.511 21.06-4.521 4.64-3.02 6.97-7 6.97-11.939 0-3.61-1.3-6.601-3.89-8.95-2.59-2.351-5.88-4.19-9.86-5.51-3.97-1.33-9.399-2.841-16.27-4.521-9.641-2.29-17.45-4.58-23.41-6.87-5.97-2.29-11.09-5.88-15.37-10.76s-6.42-11.48-6.42-19.8c0-6.99 1.899-13.351 5.69-19.08 3.8-5.72 9.529-10.271 17.18-13.65 4.439-1.96 9.46-3.35 15.06-4.17v-23.38h19.78v22.73a91.467 91.467 0 0 1 16.061 2.649c7.47 1.93 13.92 4.7 19.35 8.32l-7.42 18.26c-5.54-3.25-11.33-5.72-17.36-7.41-6.02-1.689-11.87-2.53-17.53-2.53-9.279 0-16.189 1.561-20.709 4.7-4.521 3.13-6.78 7.29-6.78 12.471 0 3.619 1.3 6.569 3.89 8.859s5.88 4.101 9.85 5.431c3.98 1.319 9.41 2.829 16.28 4.52 9.4 2.17 17.11 4.43 23.14 6.78 6.03 2.35 11.181 5.939 15.461 10.76 4.279 4.82 6.42 11.33 6.42 19.53 0 6.99-1.9 13.31-5.7 18.979-3.79 5.67-9.55 10.19-17.261 13.561-5.149 2.25-11.05 3.75-17.689 4.5v23.05h-19.78l-.002-22.909z"/><path fill="#949899" d="M1219.84 2099.695h-7.68a2.086 2.086 0 0 1 0-4.17h7.68a2.086 2.086 0 0 1 0 4.17zm-20.18 0h-8.33a2.086 2.086 0 0 1 0-4.17h8.33a2.086 2.086 0 0 1 0 4.17zm-20.83 0h-8.33a2.086 2.086 0 0 1 0-4.17h8.33a2.086 2.086 0 0 1 0 4.17zm-20.83 0h-8.33a2.086 2.086 0 0 1 0-4.17h8.33a2.086 2.086 0 0 1 0 4.17zm-20.83 0h-8.33a2.086 2.086 0 0 1 0-4.17h8.33a2.086 2.086 0 0 1 0 4.17zm-20.83 0h-8.33a2.086 2.086 0 0 1 0-4.17h8.33a2.086 2.086 0 0 1 0 4.17zm-20.83 0h-8.33a2.086 2.086 0 0 1 0-4.17h8.33a2.086 2.086 0 0 1 0 4.17zm-20.83 0h-8.33a2.086 2.086 0 0 1 0-4.17h8.33a2.086 2.086 0 0 1 0 4.17zm-20.829 0h-8.33a2.086 2.086 0 0 1 0-4.17h8.33a2.086 2.086 0 0 1 0 4.17zm-20.83 0h-8.33a2.086 2.086 0 0 1 0-4.17h8.33a2.086 2.086 0 0 1 0 4.17zm-20.831 0h-8.33a2.086 2.086 0 0 1 0-4.17h8.33a2.086 2.086 0 0 1 0 4.17zm-20.83 0h-8.33a2.086 2.086 0 0 1 0-4.17h8.33a2.086 2.086 0 0 1 0 4.17zm-20.83 0h-8.33a2.086 2.086 0 0 1 0-4.17h8.33a2.086 2.086 0 0 1 0 4.17zm-20.83 0h-8.33a2.086 2.086 0 0 1 0-4.17h8.33a2.086 2.086 0 0 1 0 4.17zm-20.829 0h-8.33a2.086 2.086 0 0 1 0-4.17h8.33a2.086 2.086 0 0 1 0 4.17zm-20.83 0h-8.33a2.086 2.086 0 0 1 0-4.17h8.33a2.086 2.086 0 0 1 0 4.17zm-20.831 0h-8.33a2.086 2.086 0 0 1 0-4.17h8.33a2.086 2.086 0 0 1 0 4.17zm-17.06-3.769a2.086 2.086 0 0 1-2.085-2.085v-8.33a2.086 2.086 0 0 1 4.17 0v8.33a2.085 2.085 0 0 1-2.085 2.085zm0-20.83a2.086 2.086 0 0 1-2.085-2.085v-8.33a2.086 2.086 0 0 1 4.17 0v8.33a2.085 2.085 0 0 1-2.085 2.085zm0-20.83a2.086 2.086 0 0 1-2.085-2.085v-8.33a2.086 2.086 0 0 1 4.17 0v8.33a2.085 2.085 0 0 1-2.085 2.085zm0-20.83a2.086 2.086 0 0 1-2.085-2.085v-8.33a2.086 2.086 0 0 1 4.17 0v8.33a2.085 2.085 0 0 1-2.085 2.085zm0-20.831a2.086 2.086 0 0 1-2.085-2.085v-8.33a2.086 2.086 0 0 1 4.17 0v8.33a2.084 2.084 0 0 1-2.085 2.085zm0-20.83a2.086 2.086 0 0 1-2.085-2.085v-8.33a2.086 2.086 0 0 1 4.17 0v8.33a2.084 2.084 0 0 1-2.085 2.085zm1019.06-572.019a2.086 2.086 0 0 1-2.085-2.085v-8.33a2.086 2.086 0 0 1 4.17 0v8.33a2.086 2.086 0 0 1-2.085 2.085zm0-20.83a2.086 2.086 0 0 1-2.085-2.085v-8.33a2.086 2.086 0 0 1 4.17 0v8.33a2.086 2.086 0 0 1-2.085 2.085zm0-20.83a2.086 2.086 0 0 1-2.085-2.085v-8.33a2.086 2.086 0 0 1 4.17 0v8.33a2.086 2.086 0 0 1-2.085 2.085zm0-20.83a2.086 2.086 0 0 1-2.085-2.085v-8.33a2.086 2.086 0 0 1 4.17 0v8.33a2.086 2.086 0 0 1-2.085 2.085zm0-20.83a2.086 2.086 0 0 1-2.085-2.085v-8.33a2.086 2.086 0 0 1 4.17 0v8.33a2.086 2.086 0 0 1-2.085 2.085zm0-20.83a2.086 2.086 0 0 1-2.085-2.085v-8.33a2.086 2.086 0 0 1 4.17 0v8.33a2.086 2.086 0 0 1-2.085 2.085zm0-20.83a2.086 2.086 0 0 1-2.085-2.085v-8.33a2.086 2.086 0 0 1 4.17 0v8.33a2.086 2.086 0 0 1-2.085 2.085zm137.81-16.331h-8.33a2.086 2.086 0 0 1 0-4.17h8.33a2.086 2.086 0 0 1 0 4.17zm-20.831 0h-8.33a2.086 2.086 0 0 1 0-4.17h8.33a2.086 2.086 0 0 1 0 4.17zm-20.83 0h-8.33a2.086 2.086 0 0 1 0-4.17h8.33a2.086 2.086 0 0 1 0 4.17zm-20.83 0h-8.33a2.086 2.086 0 0 1 0-4.17h8.33a2.086 2.086 0 0 1 0 4.17zm-20.83 0h-8.33a2.086 2.086 0 0 1 0-4.17h8.33a2.086 2.086 0 0 1 0 4.17zm-20.83 0h-8.33a2.086 2.086 0 0 1 0-4.17h8.33a2.086 2.086 0 0 1 0 4.17zm-20.83 0h-8.329a2.086 2.086 0 0 1 0-4.17h8.329a2.086 2.086 0 0 1 0 4.17zM764.2 709.596a2.086 2.086 0 0 1-2.085-2.085v-8.33a2.086 2.086 0 0 1 4.17 0v8.33a2.085 2.085 0 0 1-2.085 2.085zm0-20.83a2.086 2.086 0 0 1-2.085-2.085v-8.33a2.086 2.086 0 0 1 4.17 0v8.33a2.085 2.085 0 0 1-2.085 2.085zm0-20.83a2.086 2.086 0 0 1-2.085-2.085v-8.33a2.086 2.086 0 0 1 4.17 0v8.33a2.085 2.085 0 0 1-2.085 2.085zm0-20.831a2.086 2.086 0 0 1-2.085-2.085v-1.94c0-1.151.934-2.085 2.085-2.085h6.39a2.086 2.086 0 0 1 0 4.17h-4.31a2.085 2.085 0 0 1-2.08 1.94zm214.69-1.94h-8.33a2.086 2.086 0 0 1 0-4.17h8.33a2.086 2.086 0 0 1 0 4.17zm-20.83 0h-8.33a2.086 2.086 0 0 1 0-4.17h8.33a2.086 2.086 0 0 1 0 4.17zm-20.831 0h-8.33a2.086 2.086 0 0 1 0-4.17h8.33a2.086 2.086 0 0 1 0 4.17zm-20.83 0h-8.33a2.086 2.086 0 0 1 0-4.17h8.33a2.086 2.086 0 0 1 0 4.17zm-20.829 0h-8.33a2.086 2.086 0 0 1 0-4.17h8.33a2.086 2.086 0 0 1 0 4.17zm-20.83 0h-8.33a2.086 2.086 0 0 1 0-4.17h8.33a2.086 2.086 0 0 1 0 4.17zm-20.83 0h-8.33a2.086 2.086 0 0 1 0-4.17h8.33a2.086 2.086 0 0 1 0 4.17zm-20.83 0h-8.33a2.086 2.086 0 0 1 0-4.17h8.33a2.086 2.086 0 0 1 0 4.17zm-20.83 0h-8.33a2.086 2.086 0 0 1 0-4.17h8.33a2.086 2.086 0 0 1 0 4.17zm-20.831 0h-8.33a2.086 2.086 0 0 1 0-4.17h8.33a2.086 2.086 0 0 1 0 4.17z"/><path fill="#FBCC7C" d="M490.23 2503.979h363.1v262.371h-363.1z"/><path fill="#E8A860" d="M853.33 2503.979h183.77v262.371H853.33z"/><path fill="#FFE072" d="M490.23 2423.17h363.1v80.81h-363.1z"/><path fill="#F7BD7B" d="M853.33 2423.17h183.77v80.81H853.33z"/><path fill="#2A1D19" d="M1037.1 2506.064H490.23a2.086 2.086 0 0 1 0-4.17h546.87a2.086 2.086 0 0 1 0 4.17z"/><path fill="#FF845E" d="M635.25 2423.17h73.061v142.8H635.25z"/><path fill="#2A1D19" d="M853.33 2423.17v343.18s24.37-173.8 0-343.18z"/><path fill="#FBCC7C" d="M580.97 2248.97h267.511v174.2H580.97z"/><path fill="#E8A860" d="M848.48 2248.97h135.39v174.2H848.48z"/><path fill="#FFE072" d="M580.97 2195.32h267.511v53.649H580.97z"/><path fill="#F7BD7B" d="M848.48 2195.32h135.39v53.649H848.48z"/><path fill="#2A1D19" d="M983.87 2251.055h-402.9a2.086 2.086 0 0 1 0-4.17h402.9a2.086 2.086 0 0 1 0 4.17z"/><path fill="#FF845E" d="M687.811 2195.32h53.829v94.819h-53.829z"/><path fill="#2A1D19" d="M848.48 2195.32v227.85s17.95-115.39 0-227.85z"/><path fill="#E8A860" d="M2122.8 2556.91h234.91v210.46H2122.8z"/><path fill="#FBCC7C" d="M2003.91 2556.91h118.89v210.46h-118.89z"/><path fill="#F7BD7B" d="M2122.8 2492.09h234.91v64.82H2122.8z"/><path fill="#FFE072" d="M2003.91 2492.09h118.89v64.82h-118.89z"/><path fill="#2A1D19" d="M2357.71 2558.995h-353.8a2.086 2.086 0 0 1 0-4.17h353.8a2.086 2.086 0 0 1 0 4.17z"/><path fill="#2A1D19" d="M2122.8 2492.09v275.28s-15.76-139.41 0-275.28z"/><path fill="#FF845E" d="M2049.561 2492.09h27.58v114.55h-27.58z"/><path fill="#F59A8E" d="m1587.17 2426.45 37.68 255.779s15.061 30.431 59.61 21.021c44.54-9.399 48.79-49.49 48.79-49.49l-10.54-250.21-135.54 22.9z"/><path fill="#353640" d="M1614.99 2647.84s53.01 31.86 80.5 16.03c27.49-15.82 41.66-12.91 41.66-12.91s68.609 56.43 91.1 69.76 20.83 46.65 20.83 46.65h-275.63c0-54.099 12.77-86.55 41.54-119.53z"/><path fill="#F59A8E" d="m1263.38 2395.88-29.25 256.88s6.75 33.28 52.22 35.62c45.471 2.35 59.86-35.311 59.86-35.311l54.04-244.529-136.87-12.66z"/><path fill="#353640" d="M1230.62 2647.84s53.01 31.86 80.5 16.03c27.49-15.82 41.649-12.91 41.649-12.91s68.621 56.43 91.11 69.76c22.49 13.33 20.82 46.65 20.82 46.65h-275.63c.001-54.099 12.781-86.55 41.551-119.53z"/><path fill="#FFF" d="M1321 2688.44s32.33-14.221 56.83-17.19c0 0-37.84-10.93-56.83 17.19zm19.73 15.62s32.319-14.22 56.819-17.189c.001-.001-37.839-10.94-56.819 17.189zm19.72 15.61s32.329-14.22 56.829-17.18c0 0-37.849-10.94-56.829 17.18zm341.89-33.97s32.33-14.221 56.83-17.19c0 0-37.85-10.93-56.83 17.19zm19.73 15.62s32.319-14.22 56.819-17.19c.001 0-37.839-10.94-56.819 17.19zm19.72 15.62s32.319-14.221 56.83-17.19c0 0-37.85-10.94-56.83 17.19zm97.42 31.715h-247.03a2.086 2.086 0 0 1 0-4.17h247.03a2.086 2.086 0 0 1 0 4.17zm-384.38 0H1207.8a2.086 2.086 0 0 1 0-4.17h247.03a2.086 2.086 0 0 1 0 4.17z"/><path fill="#5630AD" d="M1652.16 1531.29c31.15 262.47 49.05 428.55 63.27 613.17 6.391 88.83-131.58 155.22-170.119 6.96l-83.45-564.81c-.001 0 23.53-183.78 190.299-55.32z"/><path fill="#2A1D19" d="m1541.18 1688.36-30.939 88.59c-.001 0 31.879-25.78 30.939-88.59z"/><path fill="#5630AD" d="m1527.109 1566-57.76 570.01c-34.67 67.7-166.64 50.64-167.27-27.189l-3.21-355.32s-.49-68.05 19.01-132.46c30.791-101.721 233.201-239.481 209.23-55.041z"/><path fill="#2A1D19" d="M1487.682 1957.165a2.084 2.084 0 0 1-2.077-2.295l30.881-304.69a2.084 2.084 0 1 1 4.148.42l-30.881 304.69a2.084 2.084 0 0 1-2.071 1.875z"/><path fill="#F59A8E" d="m1844.85 749.35 32.32-67.37s-5.25-19.109 15.689-52.34c20.94-33.229 40.92-65.8 50.48-65.8s-19.07 70.8-19.07 70.8 15.021-5.92 22.08-4.09c7.061 1.82 3.641 12.97 3.641 12.97s14.109-1.37 17.289 1.82c3.19 3.18.69 12.97.69 12.97s7.28-2.05 11.83 3.41c4.56 5.47-16.79 55.9-38.44 56.63l-25.739 67.19s-57.35 20.48-70.77-36.19z"/><path fill="#2A1D19" d="m1936.6 697.55 31.37-39.24s-5.361 30.11-31.37 39.24zm-18.209-7.42 31.89-46.83c-.001 0-3.431 34.31-31.89 46.83zM1896.99 680l27.09-45.49s-1.25 32.2-27.09 45.49z"/><path fill="#F59A8E" d="M1866.04 711.15s4.569-42.86 12.479-49.67c7.92-6.811 47.53-10.33 52.211-7.75 4.689 2.579-15.461 20.619-33.28 21.09 0 0 39.61 21.56 24.61 53.439s-63.749 27.191-56.02-17.109z"/><path fill="#2A1D19" d="M1878.25 662.6c-3.1 2.681-3.87 1.37-.77-1.31 9.699-8.35 45.47-15.4 54.76-10.3 1.08.6 1.779 1.479 2.109 2.6l.07.26c.4 1.73-.27 3.78-1.8 5.91-1.181 1.63-2.96 3.5-5.181 5.391-5.26 4.479-13.22 9.27-21.55 11.5 8.61 6.39 20.681 19.31 21.08 36.569.08 4.101-.87 4.21-.95.12-.5-21.57-30.04-35.77-30.109-35.81a3.13 3.13 0 0 1-1.57-2.641 3.114 3.114 0 0 1 3.04-3.18c9.49-.25 19.83-6.01 26.03-11.3 1.82-1.55 3.25-3.03 4.15-4.28l.049-.07c-6.928-.889-45.208 2.971-49.358 6.541z"/><path fill="#353640" d="m1526.04 1058.54 216.56-115.32s54.381-21.56 75.94 24.38c21.56 45.94-12.19 75.001-12.19 75.001l-202.5 133.59c0-.001-101.25-23.901-77.81-117.651z"/><path fill="#2A1D19" d="M1603.852 1178.276a2.085 2.085 0 0 1-1.15-3.826l202.5-133.591a2.085 2.085 0 0 1 2.297 3.48l-202.5 133.591a2.074 2.074 0 0 1-1.147.346z"/><path fill="#FFE072" d="M1289.98 1130.72c7.029-4.68 107.91-65.979 107.91-65.979l93.899-21.101c72.21 9.221 106.19 19.58 126.84 96.32l84.8 417.33s-139.68 76.87-404.06 63.75l-23.43-435.94c.001 0-6.329-35.161 14.041-54.38z"/><path fill="#FFF" d="M1605.87 1104.25c1.72 3.58 3.36 7.39 4.94 11.44-120.791 55.709-241.61 77.909-333.98 86.02l-.67-12.41c91.21-8.03 210.49-29.99 329.71-85.05zm27.76 109.5 2.54 12.51c-97.449 46.3-219.859 86.87-353.18 90l-.67-12.43c132.75-3.02 254.64-43.8 351.31-90.08zm23.729 116.81 2.521 12.391c-130.31 50.71-262.67 79.45-370.31 95.729l-.67-12.46c107.23-16.28 238.959-45 368.459-95.66zm26.521 130.47 2.49 12.26c-115.21 41.04-250.74 75.3-390.601 80.73l-.67-12.4c139.191-5.33 274.181-39.62 388.781-80.59z"/><path fill="#353640" d="M1495.21 1044.08c69.87 9.13 105.319 19.31 125.649 94.83l82.57 418.38s-32.85 36.02-102.199 53.74l-63.351-504.7-42.669-62.25zm-205.23 86.64c5.319-3.54 64.17-39.37 92.64-56.699 0 0 61.04 59.97 63.85 63.72 2.82 3.75 18.061 506.55 18.07 506.84-48.521 4.8-102.38-20.431-165.17-23.54l-23.431-435.94c0-.001-6.33-35.162 14.041-54.381z"/><path fill="#2A1D19" d="M1375.63 1305.14s32.81 36.57 60 44.061c0-.001-40.78 3.759-60-44.061zm240.15-182.86 27.829 131.88s-29.389-56.83-27.829-131.88z"/><path fill="#F59A8E" d="M1467.15 993.5c-38.69-26.68-60.76-14.58-73.2 19.99l3.94 51.25s32.34 44.069 77.81 39.85 25.31-42.189 25.31-42.189l-33.86-68.901z"/><path fill="#2A1D19" d="M1467.15 993.5c-37.721-26.01-59.641-15.16-72.25 17.43 10.859 23.71 24.8 40.95 39.85 44.12 22.141 4.66 43.641 2.9 59.93-5.529l-27.53-56.021z"/><path fill="#F59A8E" d="M1480.47 813.37s40.79 98.43 50.16 153.75c9.38 55.31-52.97 76.41-119.53 66.1-66.56-10.31-117.189-169.689-59.06-216.56 58.12-46.88 115.31-40.32 128.43-3.29z"/><path fill="#2A1D19" d="M1344.07 878.3s23.439-51.8 74.06-43.359c50.63 8.439 89.54-27.431 47.351-59.301-42.19-31.88-149.07-10.779-157.501 65.16 0 0-36.1-16.42-7.97 73.59 28.12 90 72.84 95.82 72.84 95.82s-4.29-61.09-28.78-131.91zm131.861 74.633c-6.23 0-13.188-3.365-14.194-3.868a2.086 2.086 0 0 1 1.865-3.73c2.88 1.438 11.999 5.008 15.979 2.636 1.333-.794 2.018-2.295 2.095-4.59.364-10.882-21.522-39.554-29.986-49.684a2.085 2.085 0 1 1 3.2-2.674c1.284 1.537 31.445 37.809 30.954 52.497-.157 4.703-2.334 6.966-4.132 8.036-1.676.996-3.688 1.377-5.781 1.377z"/><path fill="#2A1D19" d="m1419.534 903.839.014-.007a8.55 8.55 0 0 1 11.321 4.246l4.177 9.19a8.55 8.55 0 0 1-4.247 11.322l-.013.006a8.55 8.55 0 0 1-11.321-4.246l-4.178-9.19a8.55 8.55 0 0 1 4.247-11.321zm59.002-25.821.012-.005a7.378 7.378 0 0 1 9.77 3.663l3.604 7.931a7.376 7.376 0 0 1-3.664 9.769l-.012.006a7.378 7.378 0 0 1-9.769-3.664l-3.604-7.931a7.377 7.377 0 0 1 3.663-9.769z"/><path fill="#FFF" d="M1434.17 961s27.32 5.97 45.78 2.89 9.16 23.17-14.3 26.08c-23.461 2.9-44.6-29.68-31.48-28.97z"/><path fill="#2A1D19" d="M1394.95 893.42s27.89-12.89 33.75-16.4c5.86-3.52-5.62-9.38-14.3-9.85-8.67-.47-29.291 31.17-19.45 26.25zm99.3-35.99s-26.891 9.78-33.061 11.311c-6.18 1.52-2.439-9.891 2.99-15.88 5.421-6.001 39.801 1.368 30.071 4.569z"/><path fill="#F59A8E" d="M1368.82 939.92s-23.49-33.82-41.59-11.41c-18.101 22.42-7.641 77.431 48.739 54.32l-7.149-42.91z"/><path fill="#2A1D19" d="M1367.712 967.425a2.084 2.084 0 0 1-1.769-.979 62.935 62.935 0 0 0-4.016-5.716c-14.646-4.14-25.663-2.488-25.773-2.47a2.086 2.086 0 0 1-.646-4.12c.423-.066 9.043-1.361 21.336 1.083-12.769-11.72-24.332-7.445-24.475-7.391a2.086 2.086 0 0 1-1.515-3.885c.851-.332 21.031-7.804 38.625 20.286a2.086 2.086 0 0 1-1.767 3.192z"/><path fill="#D0D3D4" d="m1559.41 1263.19-53.04 255.94h169.68l63.54-255.94z"/><path fill="#FFF" d="M1676.05 1521.215h-169.68a2.084 2.084 0 0 1-2.042-2.508l53.04-255.939a2.086 2.086 0 0 1 2.042-1.662h180.18a2.087 2.087 0 0 1 2.024 2.587l-63.54 255.939a2.085 2.085 0 0 1-2.024 1.583zm-167.118-4.17h165.487l62.505-251.77h-175.816l-52.176 251.77z"/><path fill="#F59A8E" d="m1403.41 1442.56 91.63-39.64s26.64-48.37 39-50.5c12.351-2.13-4.899 44.11-4.899 44.11s10.649 54.13 11.51 61.37c.85 7.25-30.69 17.479-30.69 17.479l-72.45 33.24c-.001.001-46.45-13.64-34.101-66.059z"/><path fill="#F59A8E" d="M1559.07 1385.771c8.8-3.7 12.949-35.891 20.449-38.061 7.51-2.17 4.15 38.91-3.55 48.58l-27.25 14.42s22.9-7.11 29.62-9.68c6.71-2.561 15.2-32.19 21.52-34.95 6.32-2.771 5.34 11.649 3.561 21.52-1.78 9.88-11.85 26.271-13.43 27.65-1.58 1.39-35.351 12.64-35.351 12.64s31.601-4.54 35.75-5.92c4.14-1.38 23.3-18.76 25.671-16.99 2.369 1.78-9.681 22.12-14.811 27.65-5.141 5.53-42.66 9.68-42.66 9.68s28.641 2.57 33.77 3.16c5.141.59 20.541-13.43 23.511-11.649 2.96 1.78-7.71 18.56-18.181 23.3-10.459 4.74-50.16 3.561-50.16 3.561s-24.489 8.89-45.619 12.84c-21.141 3.949-19.181-58.42-19.181-58.42 26.151-9.012 50.741-18.592 76.341-29.331z"/><path fill="#2A1D19" d="m1505.32 1410.36 36.289-17.391c0 .001-18.129-4.289-36.289 17.391z"/><path fill="#353640" d="M1222.27 1518.38s2.341 69.84 67.03 72.19c64.681 2.34 59.53-91.41 59.53-91.41l1.88-252.19s-7.069-144.37-60.729-116.25c-53.65 28.13-66.301 165.94-66.301 165.94l-1.41 221.72z"/><path fill="#2A1D19" d="M1349.17 1455.805h-.016a2.085 2.085 0 0 1-2.069-2.101l1.54-206.75c.009-1.151.97-2.06 2.101-2.069a2.085 2.085 0 0 1 2.069 2.101l-1.54 206.75a2.086 2.086 0 0 1-2.085 2.069zm-66.828 136.31a2.08 2.08 0 0 1-.157-.006c-24.572-1.827-43.098-15.2-53.575-38.675-7.832-17.547-8.404-34.29-8.424-34.994l.96-150.503a2.085 2.085 0 0 1 2.084-2.072h.014a2.085 2.085 0 0 1 2.072 2.098l-.961 150.43c.004.09.583 16.651 8.114 33.455 9.961 22.229 26.793 34.375 50.026 36.103a2.086 2.086 0 0 1-.153 4.164z"/><path fill="#353640" d="m1482.9 1396.5 35.16 89.53-204.131 99.75s-41.02 14.63-62.59-35.99c-21.56-50.63 49.69-75.47 49.69-75.47l181.871-77.82z"/><path fill="#2A1D19" d="M1518.062 1488.116a2.083 2.083 0 0 1-1.941-1.323l-34.375-87.53-179.895 76.975a2.086 2.086 0 0 1-1.64-3.834l181.87-77.82a2.087 2.087 0 0 1 2.761 1.155l35.16 89.53a2.084 2.084 0 0 1-1.94 2.847z"/><path fill="#2A1D19" d="M1468.67 1414.33s-3.9 35.18 25.61 61.979l-25.61-61.979zm16.439 87.81-171.18 83.641c.001-.001 96.371-66.881 171.18-83.641z"/><path fill="#353640" d="m1862.13 691.51 80.62 41.25-121.811 288.62s-20.22 13.26-57.25-5.49c-37.029-18.75-21.09-72.67-21.09-72.67l119.531-251.71z"/><path fill="#2A1D19" d="M1740.581 985.925a2.08 2.08 0 0 1-1.623-.775c-.478-.592-11.541-14.812 1.758-42.824 12.891-27.15 57.76-121.63 57.76-121.63a2.086 2.086 0 0 1 3.767 1.789s-44.869 94.48-57.76 121.629c-12.187 25.67-2.381 38.292-2.281 38.417a2.084 2.084 0 0 1-1.621 3.394z"/><path fill="#5630AD" d="m1469.35 2136.01-104.3 493.12s-73.41 12.189-143.21-4.22l80.24-516.091s21.07-65.909 92.32-61.22c71.25 4.691 73.959 59.621 74.95 88.411z"/><path fill="#2A1D19" d="M1312.66 2137.851s10.31 59.529 31.41 76.879c0-.001-40.32-3.751-31.41-76.879zm53.91 452.554H1232.5a2.086 2.086 0 0 1 0-4.17h134.07a2.086 2.086 0 0 1 0 4.17z"/><path fill="#5630AD" d="M1715.42 2144.24c10.1 131.08 18.34 271.479 28.15 462.37 0 0-87.641 18.22-139.2.409l-59.06-455.6s-4.73-76.261 78.34-94.45c81.411-17.829 91.4 83.231 91.77 87.271z"/><path fill="#2A1D19" d="M1735.95 2574.005h-130.79a2.086 2.086 0 0 1 0-4.17h130.79a2.086 2.086 0 0 1 0 4.17zm-184.5-424.975s46.14 39 73.45 38.75c0 0-33.31 23.02-73.45-38.75z"/><path fill="#353640" d="M2651.11 2769.455H348.89a2.086 2.086 0 0 1 0-4.17h2302.22a2.086 2.086 0 0 1 0 4.17z"/></svg>